<svg xmlns="http://www.w3.org/2000/svg" xmlns:xlink="http://www.w3.org/1999/xlink" width="500" zoomAndPan="magnify" viewBox="0 0 375 60" height="80" preserveAspectRatio="xMidYMid meet" version="1.0"><defs><g></g></defs><g fill="#000000" fill-opacity="1"><g transform="translate(1.048828, 42.375)"><g><path d="M 31.875 -5.421875 C 31.875 -3.273438 31.441406 -1.832031 30.578125 -1.09375 C 29.722656 -0.363281 28.175781 0 25.9375 0 L 11.6875 0 C 9.257812 0 7.660156 -0.410156 6.890625 -1.234375 C 6.128906 -2.066406 5.75 -3.832031 5.75 -6.53125 L 11.09375 -6.53125 L 11.09375 -4.375 L 27 -4.375 L 27 -9.5625 L 12.140625 -9.5625 C 9.898438 -9.5625 8.359375 -9.9375 7.515625 -10.6875 C 6.671875 -11.445312 6.25 -12.898438 6.25 -15.046875 L 6.25 -17.578125 C 6.25 -19.722656 6.671875 -21.160156 7.515625 -21.890625 C 8.359375 -22.628906 9.898438 -23 12.140625 -23 L 31.328125 -23 L 31.328125 -18.953125 L 11.09375 -18.953125 L 11.09375 -14.03125 L 25.9375 -14.03125 C 28.175781 -14.03125 29.722656 -13.660156 30.578125 -12.921875 C 31.441406 -12.191406 31.875 -10.753906 31.875 -8.609375 Z M 31.875 -5.421875"></path></g></g></g><g fill="#000000" fill-opacity="1"><g transform="translate(38.259692, 42.375)"><g><path d="M 33.8125 -5.421875 C 33.8125 -3.273438 33.40625 -1.832031 32.59375 -1.09375 C 31.78125 -0.363281 30.285156 0 28.109375 0 L 11.265625 0 C 9.085938 0 7.59375 -0.363281 6.78125 -1.09375 C 5.96875 -1.832031 5.5625 -3.273438 5.5625 -5.421875 L 5.5625 -17.484375 C 5.5625 -19.628906 5.96875 -21.066406 6.78125 -21.796875 C 7.59375 -22.535156 9.085938 -22.90625 11.265625 -22.90625 L 28.109375 -22.90625 C 30.285156 -22.90625 31.78125 -22.535156 32.59375 -21.796875 C 33.40625 -21.066406 33.8125 -19.628906 33.8125 -17.484375 Z M 28.46875 -4.375 L 28.46875 -18.765625 L 10.90625 -18.765625 L 10.90625 -4.375 Z M 28.46875 -4.375"></path></g></g></g><g fill="#000000" fill-opacity="1"><g transform="translate(78.644288, 42.375)"><g><path d="M 29.25 -18.90625 L 11.40625 -18.90625 L 11.40625 -12.875 L 20.609375 -12.875 L 20.609375 -8.6875 L 11.40625 -8.6875 L 11.40625 0 L 6.078125 0 L 6.078125 -19.09375 C 6.078125 -21.632812 7.378906 -22.90625 9.984375 -22.90625 L 29.25 -22.90625 Z M 29.25 -18.90625"></path></g></g></g><g fill="#000000" fill-opacity="1"><g transform="translate(109.507686, 42.375)"><g><path d="M 26.71875 -18.8125 L 16.609375 -18.8125 L 16.609375 0 L 11.21875 0 L 11.21875 -18.8125 L 1.15625 -18.8125 L 1.15625 -22.90625 L 26.71875 -22.90625 Z M 26.71875 -18.8125"></path></g></g></g><g fill="#000000" fill-opacity="1"><g transform="translate(138.255266, 42.375)"><g><path d="M 32.65625 0 L 27.546875 0 L 24.5625 -5.015625 L 9.65625 -5.015625 L 6.8125 0 L 1.515625 0 L 14.4375 -23 L 19.546875 -23 Z M 22.171875 -9.203125 L 17.015625 -18.53125 L 11.90625 -9.203125 Z M 22.171875 -9.203125"></path></g></g></g><g fill="#000000" fill-opacity="1"><g transform="translate(173.718285, 42.375)"><g><path d="M 36.0625 0 L 31.28125 0 L 31.28125 -16.65625 L 21.015625 -8.46875 L 10.671875 -16.65625 L 10.671875 0 L 6.03125 0 L 6.03125 -23 L 10.8125 -23 L 21.015625 -14.484375 L 31.375 -23 L 36.0625 -23 Z M 36.0625 0"></path></g></g></g><g fill="#000000" fill-opacity="1"><g transform="translate(216.310698, 42.375)"><g><path d="M 30.21875 -4.515625 C 30.21875 -1.503906 27.960938 0 23.453125 0 L 6.078125 0 L 6.078125 -23 L 24.890625 -23 C 28.316406 -23 30.03125 -21.507812 30.03125 -18.53125 L 30.03125 -15.734375 C 30.03125 -13.460938 28.710938 -12.175781 26.078125 -11.875 C 28.835938 -11.5 30.21875 -10.023438 30.21875 -7.453125 Z M 25.109375 -15.5 L 25.109375 -18.03125 C 25.109375 -18.832031 24.28125 -19.234375 22.625 -19.234375 L 11.09375 -19.234375 L 11.09375 -13.84375 L 22.625 -13.84375 C 24.28125 -13.84375 25.109375 -14.394531 25.109375 -15.5 Z M 25.25 -5.75 L 25.25 -7.8125 C 25.25 -8.707031 25.039062 -9.273438 24.625 -9.515625 C 24.21875 -9.765625 23.550781 -9.890625 22.625 -9.890625 L 11.09375 -9.890625 L 11.09375 -4.140625 L 22.625 -4.140625 C 23.550781 -4.140625 24.21875 -4.269531 24.625 -4.53125 C 25.039062 -4.789062 25.25 -5.195312 25.25 -5.75 Z M 25.25 -5.75"></path></g></g></g><g fill="#000000" fill-opacity="1"><g transform="translate(252.831609, 42.375)"><g><path d="M 11.359375 0 L 6.078125 0 L 6.078125 -23 L 11.359375 -23 Z M 11.359375 0"></path></g></g></g><g fill="#000000" fill-opacity="1"><g transform="translate(270.494121, 42.375)"><g><path d="M 29.984375 0 L 6.078125 0 L 6.078125 -19.140625 C 6.078125 -21.710938 7.394531 -23 10.03125 -23 L 29.765625 -23 L 29.765625 -19.09375 L 11.453125 -19.09375 L 11.453125 -13.9375 L 21.71875 -13.9375 L 21.71875 -10.03125 L 11.453125 -10.03125 L 11.453125 -4.328125 L 29.984375 -4.328125 Z M 29.984375 0"></path></g></g></g><g fill="#000000" fill-opacity="1"><g transform="translate(305.221194, 42.375)"><g><path d="M 33.078125 0 L 28.421875 0 L 10.90625 -16.09375 L 10.90625 0 L 6.03125 0 L 6.03125 -23 L 10.578125 -23 L 28.296875 -6.953125 L 28.296875 -23 L 33.078125 -23 Z M 33.078125 0"></path></g></g></g><g fill="#000000" fill-opacity="1"><g transform="translate(345.191834, 42.375)"><g><path d="M 26.71875 -18.8125 L 16.609375 -18.8125 L 16.609375 0 L 11.21875 0 L 11.21875 -18.8125 L 1.15625 -18.8125 L 1.15625 -22.90625 L 26.71875 -22.90625 Z M 26.71875 -18.8125"></path></g></g></g></svg>